<?xml version="1.0" encoding="UTF-8"?>
<svg width="512px" height="512px" viewBox="0 0 512 512" version="1.1" xmlns="http://www.w3.org/2000/svg" xmlns:xlink="http://www.w3.org/1999/xlink">
    <!-- Generator: Sketch 41.2 (35397) - http://www.bohemiancoding.com/sketch -->
    <title>info</title>
    <desc>Created with Sketch.</desc>
    <defs></defs>
    <g id="Page-1" stroke="none" stroke-width="1" fill="none" fill-rule="evenodd">
        <g id="info" fill="#FFFFFF">
            <path d="M255.5,511 C396.608754,511 511,396.608754 511,255.5 C511,114.391246 396.608754,0 255.5,0 C114.391246,0 3.35862131e-15,114.391246 3.35862131e-15,255.5 C3.35862131e-15,396.608754 114.391246,511 255.5,511 Z M256.260446,57 C264.390477,57 271.319377,59.910138 277.047354,65.7305014 C282.77533,71.5508648 285.639276,78.5259575 285.639276,86.6559889 C285.639276,95.1555671 282.821523,102.269238 277.185933,107.997214 C271.550343,113.725191 264.57525,116.589136 256.260446,116.589136 C248.684735,116.589136 241.986798,113.586613 236.166435,107.581476 C230.346071,101.57634 227.435933,94.6012468 227.435933,86.6559889 C227.435933,78.7107309 230.346071,71.7818309 236.166435,65.8690808 C241.986798,59.9563307 248.684735,57 256.260446,57 Z M325.395105,456.755971 L234.087744,455 L234.087744,203.616992 L149,203.616992 L149,166.200557 L277.324513,166.200557 L277.324513,408.742546 L325.395105,408.742546 L325.395105,456.755971 Z" id="Combined-Shape"></path>
        </g>
    </g>
</svg>