<?xml version="1.0" encoding="UTF-8"?>
<svg width="284px" height="191px" viewBox="0 0 284 191" version="1.1" xmlns="http://www.w3.org/2000/svg" xmlns:xlink="http://www.w3.org/1999/xlink">
    <!-- Generator: Sketch 41.2 (35397) - http://www.bohemiancoding.com/sketch -->
    <title>p3</title>
    <desc>Created with Sketch.</desc>
    <defs>
        <polygon id="path-1" points="0.06 190.94 283.179 190.94 283.179 0.119 0.06 0.119"></polygon>
    </defs>
    <g id="Page-1" stroke="none" stroke-width="1" fill="none" fill-rule="evenodd">
        <g id="p3">
            <g id="164">
                <mask id="mask-2" fill="white">
                    <use xlink:href="#path-1"></use>
                </mask>
                <g id="Clip-2"></g>
                <path d="M177.214,54.151 C177.287,48.557 177.904,-0.285 114.634,0.121 L79.141,0.121 C108.2,9.514 105.938,45.584 106.07,48.998 L106.07,62.323 C105.938,65.737 106.893,104.452 79.141,111.202 L114.051,111.202 C157.603,112.448 176.781,87.975 177.214,54.151" id="Fill-1" fill="#FFFFFF" mask="url(#mask-2)"></path>
                <path d="M240.009,95.207 C254.371,93.971 282.38,86.885 282.38,47.795 C282.38,-1.922 232.689,0.139 229.738,0.139 L185.042,0.139 C185.042,0.139 219.167,0.541 219.167,42.067 L219.167,55.955 C219.167,86.614 203.054,93.717 197.257,94.965 L197.257,95.455 C203.054,96.7 219.167,103.813 219.167,134.465 L219.167,148.354 C219.167,185.797 200.384,190.284 194.128,190.284 C187.871,190.284 168.289,185.797 168.289,148.354 L168.289,138.368 C168.289,138.244 168.296,138.125 168.296,138.004 L109.713,138.004 C109.54,139.946 109.445,140.5 109.445,142.621 C109.445,192.342 158.394,190.996 161.343,190.996 L231.277,190.996 C234.228,190.996 283.179,192.342 283.179,142.621 C283.179,103.537 254.371,96.455 240.009,95.207" id="Fill-3" fill="#FFFFFF" mask="url(#mask-2)"></path>
                <polygon id="Fill-4" fill="#FFFFFF" mask="url(#mask-2)" points="0 190.996 61.864 190.996 61.864 0.121 0 0.121"></polygon>
            </g>
        </g>
    </g>
</svg>